<?xml version="1.0" encoding="UTF-8" standalone="no"?>
<!DOCTYPE svg PUBLIC "-//W3C//DTD SVG 1.1//EN"
 "http://www.w3.org/Graphics/SVG/1.1/DTD/svg11.dtd">
<!-- Generated by graphviz version 14.1.2 (0)
 -->
<!-- Title: G Pages: 1 -->
<svg width="925pt" height="797pt"
 viewBox="0.00 0.00 925.00 797.00" xmlns="http://www.w3.org/2000/svg" xmlns:xlink="http://www.w3.org/1999/xlink">
<g id="graph0" class="graph" transform="scale(1 1) rotate(0) translate(4 793)">
<title>G</title>
<polygon fill="white" stroke="none" points="-4,4 -4,-793 921,-793 921,4 -4,4"/>
<g id="clust1" class="cluster">
<title>cluster_root</title>
<g id="a_clust1"><a xlink:title="eventq_index=0&#10;full_system=false&#10;sim_quantum=0&#10;time_sync_enable=false&#10;time_sync_period=100000000000&#10;time_sync_spin_threshold=100000000">
<path fill="#bab6ae" stroke="#000000" d="M20,-8C20,-8 897,-8 897,-8 903,-8 909,-14 909,-20 909,-20 909,-769 909,-769 909,-775 903,-781 897,-781 897,-781 20,-781 20,-781 14,-781 8,-775 8,-769 8,-769 8,-20 8,-20 8,-14 14,-8 20,-8"/>
<text xml:space="preserve" text-anchor="middle" x="458.5" y="-763.7" font-family="Arial" font-size="14.00" fill="#000000">root </text>
<text xml:space="preserve" text-anchor="middle" x="458.5" y="-747.95" font-family="Arial" font-size="14.00" fill="#000000">: Root</text>
</a>
</g>
</g>
<g id="clust2" class="cluster">
<title>cluster_board</title>
<g id="a_clust2"><a xlink:title="auto_unlink_shared_backstore=false&#10;cache_line_size=64&#10;eventq_index=0&#10;exit_on_work_items=true&#10;external_memory_ranges=&#10;init_param=0&#10;m5ops_base=8589934592&#10;mem_mode=timing&#10;mem_ranges=0:8589934592&#10;memories=board.memory.mem_ctrl.dram&#10;mmap_using_noreserve=false&#10;multi_thread=false&#10;&#10;um_work_ids=16&#10;&#13;eadfile=&#10;&#13;edirect_paths=&#10;shadow_rom_ranges=&#10;shared_backstore=&#10;symbolfile=&#10;thermal_components=&#10;thermal_model=Null&#10;work_begin_ckpt_count=0&#10;work_begin_cpu_id_exit=&#45;1&#10;work_begin_exit_count=0&#10;work_cpus_ckpt_count=0&#10;work_end_ckpt_count=0&#10;work_end_exit_count=0&#10;work_item_id=&#45;1&#10;workload=board.workload">
<path fill="#e4e7eb" stroke="#000000" d="M28,-16C28,-16 889,-16 889,-16 895,-16 901,-22 901,-28 901,-28 901,-721.5 901,-721.5 901,-727.5 895,-733.5 889,-733.5 889,-733.5 28,-733.5 28,-733.5 22,-733.5 16,-727.5 16,-721.5 16,-721.5 16,-28 16,-28 16,-22 22,-16 28,-16"/>
<text xml:space="preserve" text-anchor="middle" x="458.5" y="-716.2" font-family="Arial" font-size="14.00" fill="#000000">board </text>
<text xml:space="preserve" text-anchor="middle" x="458.5" y="-700.45" font-family="Arial" font-size="14.00" fill="#000000">: SimpleBoard</text>
</a>
</g>
</g>
<g id="clust6" class="cluster">
<title>cluster_board_processor</title>
<g id="a_clust6"><a xlink:title="eventq_index=0&#10;thermal_domain=Null">
<path fill="#bab6ae" stroke="#000000" d="M36,-317C36,-317 636,-317 636,-317 642,-317 648,-323 648,-329 648,-329 648,-674 648,-674 648,-680 642,-686 636,-686 636,-686 36,-686 36,-686 30,-686 24,-680 24,-674 24,-674 24,-329 24,-329 24,-323 30,-317 36,-317"/>
<text xml:space="preserve" text-anchor="middle" x="336" y="-668.7" font-family="Arial" font-size="14.00" fill="#000000">processor </text>
<text xml:space="preserve" text-anchor="middle" x="336" y="-652.95" font-family="Arial" font-size="14.00" fill="#000000">: BaseCPUProcessor</text>
</a>
</g>
</g>
<g id="clust7" class="cluster">
<title>cluster_board_processor_cores</title>
<g id="a_clust7"><a xlink:title="eventq_index=0&#10;thermal_domain=Null">
<path fill="#9f9c95" stroke="#000000" d="M44,-325C44,-325 628,-325 628,-325 634,-325 640,-331 640,-337 640,-337 640,-626.5 640,-626.5 640,-632.5 634,-638.5 628,-638.5 628,-638.5 44,-638.5 44,-638.5 38,-638.5 32,-632.5 32,-626.5 32,-626.5 32,-337 32,-337 32,-331 38,-325 44,-325"/>
<text xml:space="preserve" text-anchor="middle" x="336" y="-621.2" font-family="Arial" font-size="14.00" fill="#000000">cores </text>
<text xml:space="preserve" text-anchor="middle" x="336" y="-605.45" font-family="Arial" font-size="14.00" fill="#000000">: RVVCore</text>
</a>
</g>
</g>
<g id="clust8" class="cluster">
<title>cluster_board_processor_cores_core</title>
<g id="a_clust8"><a xlink:title="LFSTSize=1024&#10;LQEntries=32&#10;LSQCheckLoads=true&#10;LSQDepCheckShift=4&#10;SQEntries=32&#10;SSITAssoc=1&#10;SSITIndexingPolicy=board.processor.cores.core.SSITIndexingPolicy&#10;SSITReplPolicy=board.processor.cores.core.SSITReplPolicy&#10;SSITSize=1024&#10;activity=0&#10;bacToFetchDelay=1&#10;backComSize=5&#10;branchPred=board.processor.cores.core.branchPred&#10;cacheLoadPorts=200&#10;cacheStorePorts=200&#10;checker=Null&#10;clk_domain=board.clk_domain&#10;commitToDecodeDelay=1&#10;commitToFetchDelay=1&#10;commitToIEWDelay=1&#10;commitToRenameDelay=1&#10;commitWidth=8&#10;cpu_id=0&#10;decodeToFetchDelay=1&#10;decodeToRenameDelay=1&#10;decodeWidth=8&#10;decoder=board.processor.cores.core.decoder&#10;decoupledFrontEnd=false&#10;dispatchWidth=8&#10;do_checkpoint_insts=true&#10;do_statistics_insts=true&#10;eventq_index=0&#10;fetchBufferSize=64&#10;fetchQueueSize=32&#10;fetchTargetWidth=32&#10;fetchToBacDelay=1&#10;fetchToDecodeDelay=1&#10;fetchTrapLatency=1&#10;fetchWidth=8&#10;forwardComSize=5&#10;function_trace=false&#10;function_trace_start=0&#10;iewToCommitDelay=1&#10;iewToDecodeDelay=1&#10;iewToFetchDelay=1&#10;iewToRenameDelay=1&#10;instQueues=board.processor.cores.core.instQueues&#10;interrupts=board.processor.cores.core.interrupts&#10;isa=board.processor.cores.core.isa&#10;issueToExecuteDelay=1&#10;issueWidth=8&#10;maxFTPerCycle=4&#10;maxTakenPredPerCycle=1&#10;max_insts_all_threads=0&#10;max_insts_any_thread=0&#10;minInstSize=1&#10;mmu=board.processor.cores.core.mmu&#10;&#10;eedsTSO=false&#10;&#10;umFTQEntries=8&#10;&#10;umPhysCCRegs=0&#10;&#10;umPhysFloatRegs=256&#10;&#10;umPhysIntRegs=256&#10;&#10;umPhysMatRegs=2&#10;&#10;umPhysVecPredRegs=32&#10;&#10;umPhysVecRegs=256&#10;&#10;umROBEntries=192&#10;&#10;umRobs=1&#10;&#10;umThreads=1&#10;power_gating_on_idle=false&#10;power_model=&#10;power_state=board.processor.cores.core.power_state&#10;progress_interval=0&#10;pwr_gating_latency=300&#10;&#13;ecvRespBufferSize=64&#10;&#13;ecvRespMaxCachelines=1&#10;&#13;ecvRespThrottling=false&#10;&#13;enameToDecodeDelay=1&#10;&#13;enameToFetchDelay=1&#10;&#13;enameToIEWDelay=2&#10;&#13;enameToROBDelay=1&#10;&#13;enameWidth=8&#10;simpoint_start_insts=&#10;smtCommitPolicy=RoundRobin&#10;smtFetchPolicy=RoundRobin&#10;smtLSQPolicy=Partitioned&#10;smtLSQThreshold=100&#10;smtNumFetchingThreads=1&#10;smtROBPolicy=Partitioned&#10;smtROBThreshold=100&#10;socket_id=0&#10;squashWidth=NullOpt&#10;store_set_clear_period=250000&#10;switched_out=false&#10;syscallRetryLatency=10000&#10;system=board&#10;tracer=board.processor.cores.core.tracer&#10;trapLatency=13&#10;wbWidth=8&#10;workload=board.processor.cores.core.workload">
<path fill="#bbc6d9" stroke="#000000" d="M52,-333C52,-333 620,-333 620,-333 626,-333 632,-339 632,-345 632,-345 632,-579 632,-579 632,-585 626,-591 620,-591 620,-591 52,-591 52,-591 46,-591 40,-585 40,-579 40,-579 40,-345 40,-345 40,-339 46,-333 52,-333"/>
<text xml:space="preserve" text-anchor="middle" x="336" y="-573.7" font-family="Arial" font-size="14.00" fill="#000000">core </text>
<text xml:space="preserve" text-anchor="middle" x="336" y="-557.95" font-family="Arial" font-size="14.00" fill="#000000">: RiscvO3CPU</text>
</a>
</g>
</g>
<g id="clust9" class="cluster">
<title>cluster_board_processor_cores_core_mmu</title>
<g id="a_clust9"><a xlink:title="dtb=board.processor.cores.core.mmu.dtb&#10;eventq_index=0&#10;itb=board.processor.cores.core.mmu.itb&#10;pma_checker=board.processor.cores.core.mmu.pma_checker&#10;pmp=board.processor.cores.core.mmu.pmp">
<path fill="#bab6ae" stroke="#000000" d="M262,-341C262,-341 612,-341 612,-341 618,-341 624,-347 624,-353 624,-353 624,-531.5 624,-531.5 624,-537.5 618,-543.5 612,-543.5 612,-543.5 262,-543.5 262,-543.5 256,-543.5 250,-537.5 250,-531.5 250,-531.5 250,-353 250,-353 250,-347 256,-341 262,-341"/>
<text xml:space="preserve" text-anchor="middle" x="437" y="-526.2" font-family="Arial" font-size="14.00" fill="#000000">mmu </text>
<text xml:space="preserve" text-anchor="middle" x="437" y="-510.45" font-family="Arial" font-size="14.00" fill="#000000">: RiscvMMU</text>
</a>
</g>
</g>
<g id="clust10" class="cluster">
<title>cluster_board_processor_cores_core_mmu_itb</title>
<g id="a_clust10"><a xlink:title="entry_type=instruction&#10;eventq_index=0&#10;&#10;ext_level=Null&#10;pma_checker=board.processor.cores.core.mmu.pma_checker&#10;pmp=board.processor.cores.core.mmu.pmp&#10;size=64&#10;walker=board.processor.cores.core.mmu.itb.walker">
<path fill="#9f9c95" stroke="#000000" d="M270,-349C270,-349 421,-349 421,-349 427,-349 433,-355 433,-361 433,-361 433,-484 433,-484 433,-490 427,-496 421,-496 421,-496 270,-496 270,-496 264,-496 258,-490 258,-484 258,-484 258,-361 258,-361 258,-355 264,-349 270,-349"/>
<text xml:space="preserve" text-anchor="middle" x="345.5" y="-478.7" font-family="Arial" font-size="14.00" fill="#000000">itb </text>
<text xml:space="preserve" text-anchor="middle" x="345.5" y="-462.95" font-family="Arial" font-size="14.00" fill="#000000">: RiscvTLB</text>
</a>
</g>
</g>
<g id="clust11" class="cluster">
<title>cluster_board_processor_cores_core_mmu_itb_walker</title>
<g id="a_clust11"><a xlink:title="clk_domain=board.clk_domain&#10;eventq_index=0&#10;&#10;um_squash_per_cycle=4&#10;pma_checker=board.processor.cores.core.mmu.pma_checker&#10;pmp=board.processor.cores.core.mmu.pmp&#10;power_model=&#10;power_state=board.processor.cores.core.mmu.itb.walker.power_state&#10;system=board">
<path fill="#84827c" stroke="#000000" d="M278,-357C278,-357 413,-357 413,-357 419,-357 425,-363 425,-369 425,-369 425,-436.5 425,-436.5 425,-442.5 419,-448.5 413,-448.5 413,-448.5 278,-448.5 278,-448.5 272,-448.5 266,-442.5 266,-436.5 266,-436.5 266,-369 266,-369 266,-363 272,-357 278,-357"/>
<text xml:space="preserve" text-anchor="middle" x="345.5" y="-431.2" font-family="Arial" font-size="14.00" fill="#000000">walker </text>
<text xml:space="preserve" text-anchor="middle" x="345.5" y="-415.45" font-family="Arial" font-size="14.00" fill="#000000">: RiscvPagetableWalker</text>
</a>
</g>
</g>
<g id="clust13" class="cluster">
<title>cluster_board_processor_cores_core_mmu_dtb</title>
<g id="a_clust13"><a xlink:title="entry_type=data&#10;eventq_index=0&#10;&#10;ext_level=Null&#10;pma_checker=board.processor.cores.core.mmu.pma_checker&#10;pmp=board.processor.cores.core.mmu.pmp&#10;size=64&#10;walker=board.processor.cores.core.mmu.dtb.walker">
<path fill="#9f9c95" stroke="#000000" d="M453,-349C453,-349 604,-349 604,-349 610,-349 616,-355 616,-361 616,-361 616,-484 616,-484 616,-490 610,-496 604,-496 604,-496 453,-496 453,-496 447,-496 441,-490 441,-484 441,-484 441,-361 441,-361 441,-355 447,-349 453,-349"/>
<text xml:space="preserve" text-anchor="middle" x="528.5" y="-478.7" font-family="Arial" font-size="14.00" fill="#000000">dtb </text>
<text xml:space="preserve" text-anchor="middle" x="528.5" y="-462.95" font-family="Arial" font-size="14.00" fill="#000000">: RiscvTLB</text>
</a>
</g>
</g>
<g id="clust14" class="cluster">
<title>cluster_board_processor_cores_core_mmu_dtb_walker</title>
<g id="a_clust14"><a xlink:title="clk_domain=board.clk_domain&#10;eventq_index=0&#10;&#10;um_squash_per_cycle=4&#10;pma_checker=board.processor.cores.core.mmu.pma_checker&#10;pmp=board.processor.cores.core.mmu.pmp&#10;power_model=&#10;power_state=board.processor.cores.core.mmu.dtb.walker.power_state&#10;system=board">
<path fill="#84827c" stroke="#000000" d="M461,-357C461,-357 596,-357 596,-357 602,-357 608,-363 608,-369 608,-369 608,-436.5 608,-436.5 608,-442.5 602,-448.5 596,-448.5 596,-448.5 461,-448.5 461,-448.5 455,-448.5 449,-442.5 449,-436.5 449,-436.5 449,-369 449,-369 449,-363 455,-357 461,-357"/>
<text xml:space="preserve" text-anchor="middle" x="528.5" y="-431.2" font-family="Arial" font-size="14.00" fill="#000000">walker </text>
<text xml:space="preserve" text-anchor="middle" x="528.5" y="-415.45" font-family="Arial" font-size="14.00" fill="#000000">: RiscvPagetableWalker</text>
</a>
</g>
</g>
<g id="clust155" class="cluster">
<title>cluster_board_memory</title>
<g id="a_clust155"><a xlink:title="eventq_index=0&#10;thermal_domain=Null">
<path fill="#bab6ae" stroke="#000000" d="M668,-349C668,-349 783,-349 783,-349 789,-349 795,-355 795,-361 795,-361 795,-484 795,-484 795,-490 789,-496 783,-496 783,-496 668,-496 668,-496 662,-496 656,-490 656,-484 656,-484 656,-361 656,-361 656,-355 662,-349 668,-349"/>
<text xml:space="preserve" text-anchor="middle" x="725.5" y="-478.7" font-family="Arial" font-size="14.00" fill="#000000">memory </text>
<text xml:space="preserve" text-anchor="middle" x="725.5" y="-462.95" font-family="Arial" font-size="14.00" fill="#000000">: ChanneledMemory</text>
</a>
</g>
</g>
<g id="clust156" class="cluster">
<title>cluster_board_memory_mem_ctrl</title>
<g id="a_clust156"><a xlink:title="clk_domain=board.clk_domain&#10;command_window=10000&#10;disable_sanity_check=false&#10;dram=board.memory.mem_ctrl.dram&#10;eventq_index=0&#10;mem_sched_policy=frfcfs&#10;min_reads_per_switch=16&#10;min_writes_per_switch=16&#10;power_model=&#10;power_state=board.memory.mem_ctrl.power_state&#10;qos_policy=Null&#10;qos_priorities=1&#10;qos_priority_escalation=false&#10;qos_q_policy=fifo&#10;qos_requestors= &#160;&#160;&#160;&#160;&#160;&#160;&#160;&#160;&#160;&#160;&#160;&#160;&#160;&#160;&#10;qos_syncro_scheduler=false&#10;qos_turnaround_policy=Null&#10;static_backend_latency=10000&#10;static_frontend_latency=10000&#10;system=board&#10;write_high_thresh_perc=85&#10;write_low_thresh_perc=50">
<path fill="#9f9c95" stroke="#000000" d="M676,-357C676,-357 729,-357 729,-357 735,-357 741,-363 741,-369 741,-369 741,-436.5 741,-436.5 741,-442.5 735,-448.5 729,-448.5 729,-448.5 676,-448.5 676,-448.5 670,-448.5 664,-442.5 664,-436.5 664,-436.5 664,-369 664,-369 664,-363 670,-357 676,-357"/>
<text xml:space="preserve" text-anchor="middle" x="702.5" y="-431.2" font-family="Arial" font-size="14.00" fill="#000000">mem_ctrl </text>
<text xml:space="preserve" text-anchor="middle" x="702.5" y="-415.45" font-family="Arial" font-size="14.00" fill="#000000">: MemCtrl</text>
</a>
</g>
</g>
<g id="clust160" class="cluster">
<title>cluster_board_cache_hierarchy</title>
<g id="a_clust160"><a xlink:title="eventq_index=0&#10;thermal_domain=Null">
<path fill="#bab6ae" stroke="#000000" d="M52,-24C52,-24 761,-24 761,-24 767,-24 773,-30 773,-36 773,-36 773,-297 773,-297 773,-303 767,-309 761,-309 761,-309 52,-309 52,-309 46,-309 40,-303 40,-297 40,-297 40,-36 40,-36 40,-30 46,-24 52,-24"/>
<text xml:space="preserve" text-anchor="middle" x="406.5" y="-291.7" font-family="Arial" font-size="14.00" fill="#000000">cache_hierarchy </text>
<text xml:space="preserve" text-anchor="middle" x="406.5" y="-275.95" font-family="Arial" font-size="14.00" fill="#000000">: PrivateL1CacheHierarchy</text>
</a>
</g>
</g>
<g id="clust161" class="cluster">
<title>cluster_board_cache_hierarchy_membus</title>
<g id="a_clust161"><a xlink:title="clk_domain=board.clk_domain&#10;eventq_index=0&#10;forward_latency=4&#10;frontend_latency=3&#10;header_latency=1&#10;max_outstanding_snoops=512&#10;max_routing_table_size=512&#10;point_of_coherency=true&#10;point_of_unification=true&#10;power_model=&#10;power_state=board.cache_hierarchy.membus.power_state&#10;&#13;esponse_latency=2&#10;snoop_filter=board.cache_hierarchy.membus.snoop_filter&#10;snoop_response_latency=4&#10;system=board&#10;use_default_range=false&#10;width=64">
<path fill="#6f798c" stroke="#000000" d="M444,-32C444,-32 753,-32 753,-32 759,-32 765,-38 765,-44 765,-44 765,-249.5 765,-249.5 765,-255.5 759,-261.5 753,-261.5 753,-261.5 444,-261.5 444,-261.5 438,-261.5 432,-255.5 432,-249.5 432,-249.5 432,-44 432,-44 432,-38 438,-32 444,-32"/>
<text xml:space="preserve" text-anchor="middle" x="598.5" y="-244.2" font-family="Arial" font-size="14.00" fill="#000000">membus </text>
<text xml:space="preserve" text-anchor="middle" x="598.5" y="-228.45" font-family="Arial" font-size="14.00" fill="#000000">: SystemXBar</text>
</a>
</g>
</g>
<g id="clust164" class="cluster">
<title>cluster_board_cache_hierarchy_membus_badaddr_responder</title>
<g id="a_clust164"><a xlink:title="clk_domain=board.clk_domain&#10;eventq_index=0&#10;fake_mem=false&#10;pio_addr=0&#10;pio_latency=100000&#10;pio_size=8&#10;power_model=&#10;power_state=board.cache_hierarchy.membus.badaddr_responder.power_state&#10;&#13;et_bad_addr=true&#10;&#13;et_data16=65535&#10;&#13;et_data32=4294967295&#10;&#13;et_data64=18446744073709551615&#10;&#13;et_data8=255&#10;system=board&#10;update_data=false&#10;warn_access=">
<path fill="#c7a793" stroke="#000000" d="M631,-40C631,-40 745,-40 745,-40 751,-40 757,-46 757,-52 757,-52 757,-119.5 757,-119.5 757,-125.5 751,-131.5 745,-131.5 745,-131.5 631,-131.5 631,-131.5 625,-131.5 619,-125.5 619,-119.5 619,-119.5 619,-52 619,-52 619,-46 625,-40 631,-40"/>
<text xml:space="preserve" text-anchor="middle" x="688" y="-114.2" font-family="Arial" font-size="14.00" fill="#000000">badaddr_responder </text>
<text xml:space="preserve" text-anchor="middle" x="688" y="-98.45" font-family="Arial" font-size="14.00" fill="#000000">: BadAddr</text>
</a>
</g>
</g>
<g id="clust166" class="cluster">
<title>cluster_board_cache_hierarchy_l1icaches</title>
<g id="a_clust166"><a xlink:title="addr_ranges=0:18446744073709551615&#10;assoc=8&#10;clk_domain=board.clk_domain&#10;clusivity=mostly_incl&#10;compressor=Null&#10;data_latency=1&#10;demand_mshr_reserve=1&#10;eventq_index=0&#10;is_read_only=false&#10;max_miss_count=0&#10;move_contractions=true&#10;mshrs=16&#10;partitioning_manager=Null&#10;power_model=&#10;power_state=board.cache_hierarchy.l1icaches.power_state&#10;prefetcher=board.cache_hierarchy.l1icaches.prefetcher&#10;&#13;eplace_expansions=true&#10;&#13;eplacement_policy=board.cache_hierarchy.l1icaches.replacement_policy&#10;&#13;esponse_latency=1&#10;sequential_access=false&#10;size=16384&#10;system=board&#10;tag_latency=1&#10;tags=board.cache_hierarchy.l1icaches.tags&#10;tgts_per_mshr=20&#10;warmup_percentage=0&#10;write_allocator=Null&#10;write_buffers=8&#10;writeback_clean=true">
<path fill="#9f9c95" stroke="#000000" d="M60,-40C60,-40 220,-40 220,-40 226,-40 232,-46 232,-52 232,-52 232,-119.5 232,-119.5 232,-125.5 226,-131.5 220,-131.5 220,-131.5 60,-131.5 60,-131.5 54,-131.5 48,-125.5 48,-119.5 48,-119.5 48,-52 48,-52 48,-46 54,-40 60,-40"/>
<text xml:space="preserve" text-anchor="middle" x="140" y="-114.2" font-family="Arial" font-size="14.00" fill="#000000">l1icaches </text>
<text xml:space="preserve" text-anchor="middle" x="140" y="-98.45" font-family="Arial" font-size="14.00" fill="#000000">: L1ICache</text>
</a>
</g>
</g>
<g id="clust176" class="cluster">
<title>cluster_board_cache_hierarchy_l1dcaches</title>
<g id="a_clust176"><a xlink:title="addr_ranges=0:18446744073709551615&#10;assoc=8&#10;clk_domain=board.clk_domain&#10;clusivity=mostly_incl&#10;compressor=Null&#10;data_latency=1&#10;demand_mshr_reserve=1&#10;eventq_index=0&#10;is_read_only=false&#10;max_miss_count=0&#10;move_contractions=true&#10;mshrs=16&#10;partitioning_manager=Null&#10;power_model=&#10;power_state=board.cache_hierarchy.l1dcaches.power_state&#10;prefetcher=board.cache_hierarchy.l1dcaches.prefetcher&#10;&#13;eplace_expansions=true&#10;&#13;eplacement_policy=board.cache_hierarchy.l1dcaches.replacement_policy&#10;&#13;esponse_latency=1&#10;sequential_access=false&#10;size=16384&#10;system=board&#10;tag_latency=1&#10;tags=board.cache_hierarchy.l1dcaches.tags&#10;tgts_per_mshr=20&#10;warmup_percentage=0&#10;write_allocator=Null&#10;write_buffers=8&#10;writeback_clean=false">
<path fill="#9f9c95" stroke="#000000" d="M252,-40C252,-40 412,-40 412,-40 418,-40 424,-46 424,-52 424,-52 424,-119.5 424,-119.5 424,-125.5 418,-131.5 412,-131.5 412,-131.5 252,-131.5 252,-131.5 246,-131.5 240,-125.5 240,-119.5 240,-119.5 240,-52 240,-52 240,-46 246,-40 252,-40"/>
<text xml:space="preserve" text-anchor="middle" x="332" y="-114.2" font-family="Arial" font-size="14.00" fill="#000000">l1dcaches </text>
<text xml:space="preserve" text-anchor="middle" x="332" y="-98.45" font-family="Arial" font-size="14.00" fill="#000000">: L1DCache</text>
</a>
</g>
</g>
<!-- board_system_port -->
<g id="node1" class="node">
<title>board_system_port</title>
<path fill="#b6b8bc" stroke="#000000" d="M881.12,-401C881.12,-401 814.88,-401 814.88,-401 808.88,-401 802.88,-395 802.88,-389 802.88,-389 802.88,-377 802.88,-377 802.88,-371 808.88,-365 814.88,-365 814.88,-365 881.12,-365 881.12,-365 887.12,-365 893.12,-371 893.12,-377 893.12,-377 893.12,-389 893.12,-389 893.12,-395 887.12,-401 881.12,-401"/>
<text xml:space="preserve" text-anchor="middle" x="848" y="-377.57" font-family="Arial" font-size="14.00" fill="#000000">system_port</text>
</g>
<!-- board_cache_hierarchy_membus_cpu_side_ports -->
<g id="node7" class="node">
<title>board_cache_hierarchy_membus_cpu_side_ports</title>
<path fill="#586070" stroke="#000000" d="M535.75,-214C535.75,-214 452.25,-214 452.25,-214 446.25,-214 440.25,-208 440.25,-202 440.25,-202 440.25,-190 440.25,-190 440.25,-184 446.25,-178 452.25,-178 452.25,-178 535.75,-178 535.75,-178 541.75,-178 547.75,-184 547.75,-190 547.75,-190 547.75,-202 547.75,-202 547.75,-208 541.75,-214 535.75,-214"/>
<text xml:space="preserve" text-anchor="middle" x="494" y="-190.57" font-family="Arial" font-size="14.00" fill="#000000">cpu_side_ports</text>
</g>
<!-- board_system_port&#45;&gt;board_cache_hierarchy_membus_cpu_side_ports -->
<g id="edge1" class="edge">
<title>board_system_port&#45;&gt;board_cache_hierarchy_membus_cpu_side_ports</title>
<path fill="none" stroke="black" d="M827.92,-364.79C808.25,-349.1 776.69,-326.89 745,-317 724.94,-310.74 573.88,-320.05 556,-309 526.03,-290.47 509.4,-251.94 501.09,-225.28"/>
<polygon fill="black" stroke="black" points="504.48,-224.42 498.34,-215.79 497.76,-226.37 504.48,-224.42"/>
</g>
<!-- board_processor_cores_core_icache_port -->
<g id="node2" class="node">
<title>board_processor_cores_core_icache_port</title>
<path fill="#959ead" stroke="#000000" d="M121.88,-401C121.88,-401 60.12,-401 60.12,-401 54.12,-401 48.12,-395 48.12,-389 48.12,-389 48.12,-377 48.12,-377 48.12,-371 54.12,-365 60.12,-365 60.12,-365 121.88,-365 121.88,-365 127.88,-365 133.88,-371 133.88,-377 133.88,-377 133.88,-389 133.88,-389 133.88,-395 127.88,-401 121.88,-401"/>
<text xml:space="preserve" text-anchor="middle" x="91" y="-377.57" font-family="Arial" font-size="14.00" fill="#000000">icache_port</text>
</g>
<!-- board_cache_hierarchy_l1icaches_cpu_side -->
<g id="node11" class="node">
<title>board_cache_hierarchy_l1icaches_cpu_side</title>
<path fill="#7f7c77" stroke="#000000" d="M114,-84C114,-84 68,-84 68,-84 62,-84 56,-78 56,-72 56,-72 56,-60 56,-60 56,-54 62,-48 68,-48 68,-48 114,-48 114,-48 120,-48 126,-54 126,-60 126,-60 126,-72 126,-72 126,-78 120,-84 114,-84"/>
<text xml:space="preserve" text-anchor="middle" x="91" y="-60.58" font-family="Arial" font-size="14.00" fill="#000000">cpu_side</text>
</g>
<!-- board_processor_cores_core_icache_port&#45;&gt;board_cache_hierarchy_l1icaches_cpu_side -->
<g id="edge2" class="edge">
<title>board_processor_cores_core_icache_port&#45;&gt;board_cache_hierarchy_l1icaches_cpu_side</title>
<path fill="none" stroke="black" d="M91,-364.62C91,-312.88 91,-159.52 91,-95.54"/>
<polygon fill="black" stroke="black" points="94.5,-95.84 91,-85.84 87.5,-95.84 94.5,-95.84"/>
</g>
<!-- board_processor_cores_core_dcache_port -->
<g id="node3" class="node">
<title>board_processor_cores_core_dcache_port</title>
<path fill="#959ead" stroke="#000000" d="M230.12,-401C230.12,-401 163.88,-401 163.88,-401 157.88,-401 151.88,-395 151.88,-389 151.88,-389 151.88,-377 151.88,-377 151.88,-371 157.88,-365 163.88,-365 163.88,-365 230.12,-365 230.12,-365 236.12,-365 242.12,-371 242.12,-377 242.12,-377 242.12,-389 242.12,-389 242.12,-395 236.12,-401 230.12,-401"/>
<text xml:space="preserve" text-anchor="middle" x="197" y="-377.57" font-family="Arial" font-size="14.00" fill="#000000">dcache_port</text>
</g>
<!-- board_cache_hierarchy_l1dcaches_cpu_side -->
<g id="node13" class="node">
<title>board_cache_hierarchy_l1dcaches_cpu_side</title>
<path fill="#7f7c77" stroke="#000000" d="M306,-84C306,-84 260,-84 260,-84 254,-84 248,-78 248,-72 248,-72 248,-60 248,-60 248,-54 254,-48 260,-48 260,-48 306,-48 306,-48 312,-48 318,-54 318,-60 318,-60 318,-72 318,-72 318,-78 312,-84 306,-84"/>
<text xml:space="preserve" text-anchor="middle" x="283" y="-60.58" font-family="Arial" font-size="14.00" fill="#000000">cpu_side</text>
</g>
<!-- board_processor_cores_core_dcache_port&#45;&gt;board_cache_hierarchy_l1dcaches_cpu_side -->
<g id="edge3" class="edge">
<title>board_processor_cores_core_dcache_port&#45;&gt;board_cache_hierarchy_l1dcaches_cpu_side</title>
<path fill="none" stroke="black" d="M201.75,-364.62C215.9,-312.77 257.92,-158.88 275.32,-95.14"/>
<polygon fill="black" stroke="black" points="278.61,-96.36 277.87,-85.79 271.86,-94.52 278.61,-96.36"/>
</g>
<!-- board_processor_cores_core_mmu_itb_walker_port -->
<g id="node4" class="node">
<title>board_processor_cores_core_mmu_itb_walker_port</title>
<path fill="#6a6863" stroke="#000000" d="M405,-401C405,-401 375,-401 375,-401 369,-401 363,-395 363,-389 363,-389 363,-377 363,-377 363,-371 369,-365 375,-365 375,-365 405,-365 405,-365 411,-365 417,-371 417,-377 417,-377 417,-389 417,-389 417,-395 411,-401 405,-401"/>
<text xml:space="preserve" text-anchor="middle" x="390" y="-377.57" font-family="Arial" font-size="14.00" fill="#000000">port</text>
</g>
<!-- board_processor_cores_core_mmu_itb_walker_port&#45;&gt;board_cache_hierarchy_membus_cpu_side_ports -->
<g id="edge4" class="edge">
<title>board_processor_cores_core_mmu_itb_walker_port&#45;&gt;board_cache_hierarchy_membus_cpu_side_ports</title>
<path fill="none" stroke="black" d="M399.78,-364.6C417.9,-332.37 456.8,-263.17 478.53,-224.52"/>
<polygon fill="black" stroke="black" points="481.58,-226.24 483.42,-215.81 475.47,-222.81 481.58,-226.24"/>
</g>
<!-- board_processor_cores_core_mmu_dtb_walker_port -->
<g id="node5" class="node">
<title>board_processor_cores_core_mmu_dtb_walker_port</title>
<path fill="#6a6863" stroke="#000000" d="M509,-401C509,-401 479,-401 479,-401 473,-401 467,-395 467,-389 467,-389 467,-377 467,-377 467,-371 473,-365 479,-365 479,-365 509,-365 509,-365 515,-365 521,-371 521,-377 521,-377 521,-389 521,-389 521,-395 515,-401 509,-401"/>
<text xml:space="preserve" text-anchor="middle" x="494" y="-377.57" font-family="Arial" font-size="14.00" fill="#000000">port</text>
</g>
<!-- board_processor_cores_core_mmu_dtb_walker_port&#45;&gt;board_cache_hierarchy_membus_cpu_side_ports -->
<g id="edge5" class="edge">
<title>board_processor_cores_core_mmu_dtb_walker_port&#45;&gt;board_cache_hierarchy_membus_cpu_side_ports</title>
<path fill="none" stroke="black" d="M494,-364.6C494,-332.71 494,-264.64 494,-225.77"/>
<polygon fill="black" stroke="black" points="497.5,-226.01 494,-216.01 490.5,-226.01 497.5,-226.01"/>
</g>
<!-- board_memory_mem_ctrl_port -->
<g id="node6" class="node">
<title>board_memory_mem_ctrl_port</title>
<path fill="#7f7c77" stroke="#000000" d="M714,-401C714,-401 684,-401 684,-401 678,-401 672,-395 672,-389 672,-389 672,-377 672,-377 672,-371 678,-365 684,-365 684,-365 714,-365 714,-365 720,-365 726,-371 726,-377 726,-377 726,-389 726,-389 726,-395 720,-401 714,-401"/>
<text xml:space="preserve" text-anchor="middle" x="699" y="-377.57" font-family="Arial" font-size="14.00" fill="#000000">port</text>
</g>
<!-- board_cache_hierarchy_membus_mem_side_ports -->
<g id="node8" class="node">
<title>board_cache_hierarchy_membus_mem_side_ports</title>
<path fill="#586070" stroke="#000000" d="M670.62,-214C670.62,-214 577.38,-214 577.38,-214 571.38,-214 565.38,-208 565.38,-202 565.38,-202 565.38,-190 565.38,-190 565.38,-184 571.38,-178 577.38,-178 577.38,-178 670.62,-178 670.62,-178 676.62,-178 682.62,-184 682.62,-190 682.62,-190 682.62,-202 682.62,-202 682.62,-208 676.62,-214 670.62,-214"/>
<text xml:space="preserve" text-anchor="middle" x="624" y="-190.57" font-family="Arial" font-size="14.00" fill="#000000">mem_side_ports</text>
</g>
<!-- board_memory_mem_ctrl_port&#45;&gt;board_cache_hierarchy_membus_mem_side_ports -->
<g id="edge6" class="edge">
<title>board_memory_mem_ctrl_port&#45;&gt;board_cache_hierarchy_membus_mem_side_ports</title>
<path fill="none" stroke="black" d="M687.68,-354.08C672,-315.41 644.13,-246.65 631.09,-214.49"/>
<polygon fill="black" stroke="black" points="684.37,-355.24 691.38,-363.19 690.86,-352.61 684.37,-355.24"/>
</g>
<!-- board_cache_hierarchy_l1icaches_mem_side -->
<g id="node12" class="node">
<title>board_cache_hierarchy_l1icaches_mem_side</title>
<path fill="#7f7c77" stroke="#000000" d="M211.88,-84C211.88,-84 156.12,-84 156.12,-84 150.12,-84 144.12,-78 144.12,-72 144.12,-72 144.12,-60 144.12,-60 144.12,-54 150.12,-48 156.12,-48 156.12,-48 211.88,-48 211.88,-48 217.88,-48 223.88,-54 223.88,-60 223.88,-60 223.88,-72 223.88,-72 223.88,-78 217.88,-84 211.88,-84"/>
<text xml:space="preserve" text-anchor="middle" x="184" y="-60.58" font-family="Arial" font-size="14.00" fill="#000000">mem_side</text>
</g>
<!-- board_cache_hierarchy_membus_cpu_side_ports&#45;&gt;board_cache_hierarchy_l1icaches_mem_side -->
<g id="edge7" class="edge">
<title>board_cache_hierarchy_membus_cpu_side_ports&#45;&gt;board_cache_hierarchy_l1icaches_mem_side</title>
<path fill="none" stroke="black" d="M428.55,-190.53C373.48,-184.18 294.58,-168.79 236,-131.5 217.56,-119.76 202.68,-99.22 193.64,-84.47"/>
<polygon fill="black" stroke="black" points="428.1,-194 438.42,-191.59 428.85,-187.04 428.1,-194"/>
</g>
<!-- board_cache_hierarchy_l1dcaches_mem_side -->
<g id="node14" class="node">
<title>board_cache_hierarchy_l1dcaches_mem_side</title>
<path fill="#7f7c77" stroke="#000000" d="M403.88,-84C403.88,-84 348.12,-84 348.12,-84 342.12,-84 336.12,-78 336.12,-72 336.12,-72 336.12,-60 336.12,-60 336.12,-54 342.12,-48 348.12,-48 348.12,-48 403.88,-48 403.88,-48 409.88,-48 415.88,-54 415.88,-60 415.88,-60 415.88,-72 415.88,-72 415.88,-78 409.88,-84 403.88,-84"/>
<text xml:space="preserve" text-anchor="middle" x="376" y="-60.58" font-family="Arial" font-size="14.00" fill="#000000">mem_side</text>
</g>
<!-- board_cache_hierarchy_membus_cpu_side_ports&#45;&gt;board_cache_hierarchy_l1dcaches_mem_side -->
<g id="edge8" class="edge">
<title>board_cache_hierarchy_membus_cpu_side_ports&#45;&gt;board_cache_hierarchy_l1dcaches_mem_side</title>
<path fill="none" stroke="black" d="M470.39,-169.39C447.13,-144.16 412.25,-106.32 392.04,-84.4"/>
<polygon fill="black" stroke="black" points="467.71,-171.64 477.06,-176.62 472.86,-166.9 467.71,-171.64"/>
</g>
<!-- board_cache_hierarchy_membus_default -->
<g id="node9" class="node">
<title>board_cache_hierarchy_membus_default</title>
<path fill="#586070" stroke="#000000" d="M745.25,-214C745.25,-214 712.75,-214 712.75,-214 706.75,-214 700.75,-208 700.75,-202 700.75,-202 700.75,-190 700.75,-190 700.75,-184 706.75,-178 712.75,-178 712.75,-178 745.25,-178 745.25,-178 751.25,-178 757.25,-184 757.25,-190 757.25,-190 757.25,-202 757.25,-202 757.25,-208 751.25,-214 745.25,-214"/>
<text xml:space="preserve" text-anchor="middle" x="729" y="-190.57" font-family="Arial" font-size="14.00" fill="#000000">default</text>
</g>
<!-- board_cache_hierarchy_membus_badaddr_responder_pio -->
<g id="node10" class="node">
<title>board_cache_hierarchy_membus_badaddr_responder_pio</title>
<path fill="#9f8575" stroke="#000000" d="M737,-84C737,-84 707,-84 707,-84 701,-84 695,-78 695,-72 695,-72 695,-60 695,-60 695,-54 701,-48 707,-48 707,-48 737,-48 737,-48 743,-48 749,-54 749,-60 749,-60 749,-72 749,-72 749,-78 743,-84 737,-84"/>
<text xml:space="preserve" text-anchor="middle" x="722" y="-60.58" font-family="Arial" font-size="14.00" fill="#000000">pio</text>
</g>
<!-- board_cache_hierarchy_membus_default&#45;&gt;board_cache_hierarchy_membus_badaddr_responder_pio -->
<g id="edge9" class="edge">
<title>board_cache_hierarchy_membus_default&#45;&gt;board_cache_hierarchy_membus_badaddr_responder_pio</title>
<path fill="none" stroke="black" d="M728.06,-177.74C726.91,-156.74 724.95,-121 723.58,-95.81"/>
<polygon fill="black" stroke="black" points="727.08,-95.7 723.03,-85.91 720.09,-96.09 727.08,-95.7"/>
</g>
</g>
</svg>
